<svg version="1.1" id="Layer_1" xmlns="http://www.w3.org/2000/svg" xmlns:xlink="http://www.w3.org/1999/xlink" x="0px" y="0px"
	 width="100%" viewBox="0 0 156 155" enable-background="new 0 0 156 155" xml:space="preserve">
<path fill="#000000" opacity="1.000000" stroke="none" 
	d="
M89.000000,156.000000 
	C59.333336,156.000000 30.166674,156.000000 1.000008,156.000000 
	C1.000005,104.333344 1.000005,52.666687 1.000003,1.000022 
	C52.999985,1.000015 104.999969,1.000015 156.999969,1.000007 
	C156.999969,52.666645 156.999969,104.333290 156.999985,155.999969 
	C134.500000,156.000000 112.000000,156.000000 89.000000,156.000000 
M110.272469,50.538502 
	C110.850609,50.771057 111.428749,51.003613 112.368324,51.794872 
	C120.288132,56.394451 128.207947,60.994034 136.903366,66.044067 
	C136.903366,59.472046 137.095261,54.148270 136.776688,48.855217 
	C136.690445,47.422390 135.378662,45.542198 134.089828,44.781544 
	C116.564140,34.437977 98.958054,24.229952 81.311905,14.092756 
	C80.181206,13.443199 78.226624,13.026173 77.221474,13.562350 
	C72.178856,16.252243 67.324799,19.295620 61.775681,22.587858 
	C70.100754,27.483887 77.805809,32.015278 85.840073,36.740284 
	C84.638535,37.526543 83.847565,38.095871 83.009628,38.584675 
	C71.289734,45.421352 59.545326,52.216434 47.867401,59.123951 
	C46.731991,59.795544 45.251648,61.110435 45.201702,62.185722 
	C44.936531,67.894142 45.077042,73.621422 45.077042,80.594734 
	C63.151844,69.965088 80.065002,60.018600 97.604233,49.970623 
	C98.117920,49.625103 98.631607,49.279587 99.441788,48.913692 
	C99.441788,48.913692 99.704124,48.774017 100.328041,48.706688 
	C100.907539,48.143261 101.487038,47.579834 102.000092,46.998627 
	C102.000092,46.998627 101.986069,47.065971 102.737923,47.058434 
	C103.491241,47.088318 104.244553,47.118202 105.012253,47.033508 
	C105.012253,47.033508 104.897675,47.019131 105.131149,47.589905 
	C105.812416,48.001385 106.493675,48.412861 107.461197,48.957722 
	C107.461197,48.957722 107.776634,48.973053 108.180641,49.494453 
	C108.796738,49.682270 109.412842,49.870087 110.007416,49.986664 
	C110.007416,49.986664 109.936172,50.008186 110.272469,50.538502 
M22.302280,114.515938 
	C22.881786,114.703865 23.461292,114.891792 24.447935,115.617943 
	C32.888756,120.520630 41.275345,125.521278 49.813362,130.248413 
	C51.656261,131.268753 54.506756,132.322357 56.095196,131.601746 
	C60.864300,129.438187 65.238976,126.405167 70.408318,123.330261 
	C68.490410,121.794220 67.115013,120.403496 65.487404,119.437958 
	C57.372032,114.623764 49.106323,110.056030 41.104424,105.063515 
	C39.541985,104.088676 38.029156,101.634697 37.994545,99.834106 
	C37.738449,86.508896 37.947472,73.175446 37.800507,59.846901 
	C37.768047,56.903000 38.858803,55.344383 41.371899,54.036266 
	C46.218140,51.513699 50.925632,48.718941 55.641872,45.953827 
	C60.554363,43.073647 65.409294,40.095284 71.019592,36.720619 
	C65.702843,33.627102 61.370346,30.878571 56.809158,28.584789 
	C55.354389,27.853199 52.875378,27.610518 51.574951,28.366055 
	C41.667294,34.122307 31.935541,40.181324 21.333023,46.468689 
	C21.198830,47.276264 20.948259,48.083729 20.947453,48.891434 
	C20.926943,69.412926 20.914957,89.934509 20.978912,110.455833 
	C20.982626,111.647224 21.639492,112.836578 22.011684,113.984734 
	C22.011684,113.984734 21.967703,113.999405 22.302280,114.515938 
M83.439804,96.077942 
	C79.098328,99.739059 75.657295,97.581383 71.770287,94.193245 
	C88.278770,84.643021 104.411613,75.310104 121.166389,65.617409 
	C115.318504,62.199432 110.288994,59.067184 105.044052,56.350937 
	C103.948181,55.783405 101.842415,56.365486 100.567497,57.074726 
	C92.606796,61.503277 84.716705,66.062050 76.867058,70.686058 
	C67.176903,76.394264 57.453068,82.055733 47.937019,88.044441 
	C43.572685,90.791039 43.616577,97.647392 47.843849,100.242897 
	C56.971783,105.847389 66.154289,111.379509 75.533058,116.544296 
	C77.294594,117.514343 80.494316,117.433640 82.307861,116.473343 
	C89.474159,112.678680 96.318596,108.281532 103.349541,104.224182 
	C108.712639,101.129295 114.176979,98.209831 119.596283,95.212334 
	C120.085602,95.538284 120.574928,95.864235 121.064247,96.190193 
	C119.878647,99.078079 119.521523,103.305305 117.372025,104.634918 
	C104.135895,112.822418 90.483482,120.335564 76.995323,128.117706 
	C72.020493,130.987976 67.115646,133.979584 61.822090,137.128067 
	C66.541382,139.953613 70.545349,142.577667 74.774124,144.767593 
	C76.394180,145.606552 78.760445,146.147049 80.377411,145.604279 
	C83.453300,144.571823 86.278992,142.739105 89.130798,141.103119 
	C103.206429,133.028275 117.197975,124.804352 131.354996,116.875511 
	C135.124542,114.764313 136.920975,112.026360 136.907791,107.820580 
	C136.876968,97.987755 136.849869,88.153961 136.965973,78.322281 
	C136.996384,75.747261 135.954285,74.522011 133.935303,72.831131 
	C129.245361,68.903358 125.771408,71.519737 121.906754,73.757767 
	C109.293068,81.062363 96.656029,88.326630 83.439804,96.077942 
z"/>
<path fill="#14AC4D" opacity="1.000000" stroke="none" 
	d="
M83.733887,95.842178 
	C96.656029,88.326630 109.293068,81.062363 121.906754,73.757767 
	C125.771408,71.519737 129.245361,68.903358 133.935303,72.831131 
	C135.954285,74.522011 136.996384,75.747261 136.965973,78.322281 
	C136.849869,88.153961 136.876968,97.987755 136.907791,107.820580 
	C136.920975,112.026360 135.124542,114.764313 131.354996,116.875511 
	C117.197975,124.804352 103.206429,133.028275 89.130798,141.103119 
	C86.278992,142.739105 83.453300,144.571823 80.377411,145.604279 
	C78.760445,146.147049 76.394180,145.606552 74.774124,144.767593 
	C70.545349,142.577667 66.541382,139.953613 61.822090,137.128067 
	C67.115646,133.979584 72.020493,130.987976 76.995323,128.117706 
	C90.483482,120.335564 104.135895,112.822418 117.372025,104.634918 
	C119.521523,103.305305 119.878647,99.078079 121.064247,96.190193 
	C120.574928,95.864235 120.085602,95.538284 119.596283,95.212334 
	C114.176979,98.209831 108.712639,101.129295 103.349541,104.224182 
	C96.318596,108.281532 89.474159,112.678680 82.307861,116.473343 
	C80.494316,117.433640 77.294594,117.514343 75.533058,116.544296 
	C66.154289,111.379509 56.971783,105.847389 47.843849,100.242897 
	C43.616577,97.647392 43.572685,90.791039 47.937019,88.044441 
	C57.453068,82.055733 67.176903,76.394264 76.867058,70.686058 
	C84.716705,66.062050 92.606796,61.503277 100.567497,57.074726 
	C101.842415,56.365486 103.948181,55.783405 105.044052,56.350937 
	C110.288994,59.067184 115.318504,62.199432 121.166389,65.617409 
	C104.411613,75.310104 88.278770,84.643021 71.770287,94.193245 
	C75.657295,97.581383 79.098328,99.739059 83.733887,95.842178 
z"/>
<path fill="#15AC4D" opacity="1.000000" stroke="none" 
	d="
M99.704124,48.774017 
	C99.704124,48.774017 99.441788,48.913692 98.997803,49.020218 
	C98.028603,49.441868 97.503380,49.756989 96.978157,50.072105 
	C80.065002,60.018600 63.151844,69.965088 45.077042,80.594734 
	C45.077042,73.621422 44.936531,67.894142 45.201702,62.185722 
	C45.251648,61.110435 46.731991,59.795544 47.867401,59.123951 
	C59.545326,52.216434 71.289734,45.421352 83.009628,38.584675 
	C83.847565,38.095871 84.638535,37.526543 85.840073,36.740284 
	C77.805809,32.015278 70.100754,27.483887 61.775681,22.587858 
	C67.324799,19.295620 72.178856,16.252243 77.221474,13.562350 
	C78.226624,13.026173 80.181206,13.443199 81.311905,14.092756 
	C98.958054,24.229952 116.564140,34.437977 134.089828,44.781544 
	C135.378662,45.542198 136.690445,47.422390 136.776688,48.855217 
	C137.095261,54.148270 136.903366,59.472046 136.903366,66.044067 
	C128.207947,60.994034 120.288132,56.394451 111.950607,51.326492 
	C111.000648,50.574799 110.468414,50.291492 109.936172,50.008186 
	C109.936172,50.008186 110.007416,49.986664 109.761612,49.842537 
	C108.936089,49.456623 108.356361,49.214836 107.776634,48.973053 
	C107.776634,48.973053 107.461197,48.957722 107.120628,48.668182 
	C106.152596,47.925468 105.525139,47.472298 104.897675,47.019131 
	C104.897675,47.019131 105.012253,47.033508 104.870316,46.918320 
	C103.814278,46.890743 102.900177,46.978355 101.986069,47.065971 
	C101.986069,47.065971 102.000092,46.998627 101.758354,47.117172 
	C100.912453,47.748482 100.308289,48.261253 99.704124,48.774017 
z"/>
<path fill="#14AC4C" opacity="1.000000" stroke="none" 
	d="
M22.149025,46.146080 
	C31.935541,40.181324 41.667294,34.122307 51.574951,28.366055 
	C52.875378,27.610518 55.354389,27.853199 56.809158,28.584789 
	C61.370346,30.878571 65.702843,33.627102 71.019592,36.720619 
	C65.409294,40.095284 60.554363,43.073647 55.641872,45.953827 
	C50.925632,48.718941 46.218140,51.513699 41.371899,54.036266 
	C38.858803,55.344383 37.768047,56.903000 37.800507,59.846901 
	C37.947472,73.175446 37.738449,86.508896 37.994545,99.834106 
	C38.029156,101.634697 39.541985,104.088676 41.104424,105.063515 
	C49.106323,110.056030 57.372032,114.623764 65.487404,119.437958 
	C67.115013,120.403496 68.490410,121.794220 70.408318,123.330261 
	C65.238976,126.405167 60.864300,129.438187 56.095196,131.601746 
	C54.506756,132.322357 51.656261,131.268753 49.813362,130.248413 
	C41.275345,125.521278 32.888756,120.520630 23.999084,115.186539 
	C23.022724,114.503227 22.495214,114.251320 21.967703,113.999405 
	C21.967703,113.999405 22.011684,113.984734 22.025173,113.535896 
	C22.075449,90.773399 22.112238,68.459740 22.149025,46.146080 
z"/>
<path fill="#38A862" opacity="1.000000" stroke="none" 
	d="
M21.741024,46.307388 
	C22.112238,68.459740 22.075449,90.773399 22.015530,113.556976 
	C21.639492,112.836578 20.982626,111.647224 20.978912,110.455833 
	C20.914957,89.934509 20.926943,69.412926 20.947453,48.891434 
	C20.948259,48.083729 21.198830,47.276264 21.741024,46.307388 
z"/>
<path fill="#2D9858" opacity="1.000000" stroke="none" 
	d="
M102.362000,47.062202 
	C102.900177,46.978355 103.814278,46.890743 104.863129,46.975609 
	C104.244553,47.118202 103.491241,47.088318 102.362000,47.062202 
z"/>
<path fill="#2D9858" opacity="1.000000" stroke="none" 
	d="
M100.016083,48.740356 
	C100.308289,48.261253 100.912453,47.748482 101.791580,47.126060 
	C101.487038,47.579834 100.907539,48.143261 100.016083,48.740356 
z"/>
<path fill="#2D9858" opacity="1.000000" stroke="none" 
	d="
M105.014412,47.304520 
	C105.525139,47.472298 106.152596,47.925468 106.977501,48.601486 
	C106.493675,48.412861 105.812416,48.001385 105.014412,47.304520 
z"/>
<path fill="#2D9858" opacity="1.000000" stroke="none" 
	d="
M97.291199,50.021362 
	C97.503380,49.756989 98.028603,49.441868 98.849556,49.030407 
	C98.631607,49.279587 98.117920,49.625103 97.291199,50.021362 
z"/>
<path fill="#2D9858" opacity="1.000000" stroke="none" 
	d="
M107.978638,49.233749 
	C108.356361,49.214836 108.936089,49.456623 109.772377,49.878159 
	C109.412842,49.870087 108.796738,49.682270 107.978638,49.233749 
z"/>
<path fill="#2D9858" opacity="1.000000" stroke="none" 
	d="
M110.104324,50.273346 
	C110.468414,50.291492 111.000648,50.574799 111.769890,51.047138 
	C111.428749,51.003613 110.850609,50.771057 110.104324,50.273346 
z"/>
<path fill="#38A862" opacity="1.000000" stroke="none" 
	d="
M22.134991,114.257675 
	C22.495214,114.251320 23.022724,114.503227 23.795517,114.917435 
	C23.461292,114.891792 22.881786,114.703865 22.134991,114.257675 
z"/>
</svg>